<svg width="14" height="13" viewBox="0 0 14 13" fill="none" xmlns="http://www.w3.org/2000/svg">
<path d="M12.6875 0H1.3125C0.587891 0 0 0.623884 0 1.39286V11.6071C0 12.3761 0.587891 13 1.3125 13H12.6875C13.4121 13 14 12.3761 14 11.6071V1.39286C14 0.623884 13.4121 0 12.6875 0ZM10.4016 8.42969C10.5328 8.56897 10.5328 8.79531 10.4016 8.9346L9.29414 10.1098C9.16289 10.2491 8.94961 10.2491 8.81836 10.1098L7 8.16272L5.18164 10.1098C5.05039 10.2491 4.83711 10.2491 4.70586 10.1098L3.59844 8.9346C3.46719 8.79531 3.46719 8.56897 3.59844 8.42969L5.4332 6.5L3.59844 4.57031C3.46719 4.43103 3.46719 4.20469 3.59844 4.0654L4.70586 2.89018C4.83711 2.75089 5.05039 2.75089 5.18164 2.89018L7 4.83728L8.81836 2.89018C8.94961 2.75089 9.16289 2.75089 9.29414 2.89018L10.4016 4.0654C10.5328 4.20469 10.5328 4.43103 10.4016 4.57031L8.5668 6.5L10.4016 8.42969Z" fill="#4C66C7"/>
</svg>
