<svg width="214" height="93" viewBox="0 0 214 93" fill="none" xmlns="http://www.w3.org/2000/svg">
<mask id="path-1-outside-1" maskUnits="userSpaceOnUse" x="0" y="0" width="177" height="53" fill="black">
<rect fill="white" width="177" height="53"/>
<path d="M1.36065 13.9231C1.36065 11.3585 1.84151 9.25477 2.80323 7.61183C3.80502 5.92882 5.04724 4.60645 6.52989 3.64473C8.05262 2.64294 9.71559 1.96172 11.5188 1.60107C13.3621 1.20036 15.1253 1 16.8083 1C17.2891 1 17.8902 1.02004 18.6115 1.06011C19.3729 1.10018 20.1543 1.16029 20.9557 1.24043C21.7972 1.32057 22.6387 1.44079 23.4802 1.60107C24.3618 1.72129 25.1833 1.90161 25.9446 2.14204C26.0248 3.18391 26.0849 4.16566 26.125 5.08731C26.165 5.96889 26.1851 6.99072 26.1851 8.1528C26.1851 9.31488 26.165 10.4369 26.125 11.5188C26.0849 12.5607 26.0248 13.5625 25.9446 14.5242C25.6241 14.4841 25.2033 14.424 24.6824 14.3439C24.2015 14.2637 23.6806 14.2036 23.1196 14.1636C22.5986 14.1235 22.0577 14.0834 21.4967 14.0433C20.9757 14.0033 20.4748 13.9832 19.994 13.9832C18.0705 13.9832 16.668 14.2838 15.7865 14.8848C14.9049 15.4859 14.4641 16.3074 14.4641 17.3493C14.4641 17.9503 14.6043 18.5314 14.8848 19.0924C15.1653 19.6133 15.526 20.1142 15.9668 20.5951C16.4476 21.0759 16.9686 21.5367 17.5296 21.9775C18.1307 22.4183 18.7317 22.8391 19.3328 23.2398C20.2945 23.921 21.2562 24.6824 22.218 25.5239C23.2198 26.3253 24.1214 27.3071 24.9228 28.4691C25.7242 29.5912 26.3854 30.9135 26.9064 32.4362C27.4273 33.9189 27.6877 35.642 27.6877 37.6055C27.6877 40.1701 27.247 42.334 26.3654 44.0971C25.4838 45.8603 24.3418 47.3028 22.9393 48.4249C21.5768 49.5068 20.0341 50.3082 18.311 50.8292C16.628 51.31 14.9449 51.5504 13.2619 51.5504C12.5006 51.5504 11.5589 51.4903 10.4369 51.3701C9.35495 51.29 8.25298 51.1497 7.13097 50.9494C6.00896 50.7891 4.94706 50.5887 3.94527 50.3483C2.94348 50.0678 2.14204 49.7472 1.54097 49.3866C1.38068 48.6653 1.24043 47.924 1.12022 47.1626C1.04007 46.4012 1 45.5597 1 44.6381C1 43.9969 1.02004 43.2155 1.06011 42.2939C1.14025 41.3722 1.22039 40.4305 1.30054 39.4688C1.38068 38.5071 1.46082 37.5855 1.54097 36.7039C1.66118 35.8223 1.76136 35.081 1.84151 34.4799C2.28229 34.7203 2.92344 35.0008 3.76495 35.3214C4.60645 35.6019 5.50807 35.8824 6.46979 36.1629C7.47158 36.4434 8.47337 36.6838 9.47516 36.8842C10.477 37.0846 11.3585 37.1847 12.1199 37.1847C13.4022 37.1847 14.3639 36.9243 15.0051 36.4033C15.6462 35.8423 15.9668 35.101 15.9668 34.1794C15.9668 33.1776 15.6061 32.296 14.8848 31.5346C14.1636 30.7332 13.2619 29.9518 12.18 29.1904C11.0981 28.4291 9.91595 27.6276 8.63366 26.7861C7.39144 25.9046 6.22936 24.8827 5.14742 23.7207C4.06548 22.5586 3.16387 21.1961 2.44258 19.6333C1.72129 18.0305 1.36065 16.1271 1.36065 13.9231Z"/>
<path d="M41.1495 1.72129C41.0293 4.12559 40.9291 6.24939 40.849 8.09269C40.8089 9.93599 40.7688 11.6991 40.7287 13.3822C40.6887 15.0652 40.6486 16.8083 40.6085 18.6115C40.6085 20.3747 40.6085 22.3983 40.6085 24.6824H40.849L51.5481 1.66118H62.7281L50.947 25.6441L63.4494 50.8893H52.2093L40.849 27.0867H40.6085C40.6085 28.5693 40.6085 30.2523 40.6085 32.1357C40.6085 34.0191 40.6085 36.0026 40.6085 38.0864C40.6486 40.13 40.6686 42.2538 40.6686 44.4578C40.7087 46.6216 40.7287 48.7655 40.7287 50.8893H30.1498C30.1899 49.1261 30.23 47.3028 30.27 45.4195C30.3101 43.496 30.3502 41.4323 30.3902 39.2284C30.4303 36.9844 30.4503 34.5801 30.4503 32.0155C30.4503 29.4108 30.4503 26.5457 30.4503 23.4201C30.4503 20.6952 30.4503 18.3911 30.4503 16.5077C30.4503 14.5843 30.4303 12.8412 30.3902 11.2784C30.3902 9.71559 30.3902 8.21291 30.3902 6.77032C30.3902 5.28767 30.3902 3.60466 30.3902 1.72129H41.1495Z"/>
<path d="M64.2693 50.8893C64.3895 47.0825 64.4696 43.2957 64.5097 39.5289C64.5498 35.7221 64.5698 32.1157 64.5698 28.7096C64.5698 23.8609 64.5298 19.2527 64.4496 14.8848C64.4095 10.517 64.3494 6.12918 64.2693 1.72129C66.2328 1.52093 68.1963 1.36065 70.1598 1.24043C72.1634 1.08014 74.187 1 76.2307 1C79.1559 1 81.9008 1.22039 84.4654 1.66118C87.03 2.0619 89.254 2.8433 91.1374 4.00538C93.0207 5.12739 94.5034 6.69018 95.5853 8.69377C96.7073 10.6974 97.2683 13.282 97.2683 16.4476C97.2683 20.3747 96.4469 23.4602 94.8039 25.7042C93.2011 27.9482 91.0171 29.6312 88.2522 30.7532L98.0497 50.8893H87.3506L79.3563 32.5565C77.7133 32.6767 76.0103 32.7368 74.2471 32.7368C74.2471 35.8223 74.2672 38.8477 74.3072 41.813C74.3473 44.7783 74.4675 47.8037 74.6679 50.8893H64.2693ZM74.2471 23.6004C75.4894 23.7207 76.6314 23.7808 77.6733 23.7808C80.3981 23.7808 82.3216 23.2799 83.4436 22.2781C84.6057 21.2362 85.1867 19.6934 85.1867 17.6498C85.1867 16.4076 85.0064 15.4058 84.6457 14.6444C84.3252 13.883 83.8644 13.282 83.2633 12.8412C82.7023 12.4004 82.0211 12.0999 81.2196 11.9396C80.4583 11.7793 79.6368 11.6991 78.7552 11.6991C78.1141 11.6991 77.3928 11.7392 76.5913 11.8194C75.83 11.8594 75.0486 11.9396 74.2471 12.0598V23.6004Z"/>
<path d="M132.664 1.66118C132.744 7.51165 132.864 12.5807 133.024 16.8684C133.185 21.116 133.265 24.7425 133.265 27.7479C133.265 29.7114 133.205 31.6749 133.084 33.6384C132.964 35.5618 132.704 37.4051 132.303 39.1683C131.902 40.9314 131.321 42.5744 130.56 44.0971C129.839 45.5798 128.857 46.8821 127.615 48.0041C126.413 49.1261 124.91 50.0077 123.107 50.6488C121.303 51.2499 119.16 51.5504 116.675 51.5504C114.11 51.5504 111.907 51.2299 110.063 50.5887C108.26 49.9075 106.737 49.0059 105.495 47.8839C104.253 46.7619 103.251 45.4395 102.49 43.9168C101.768 42.354 101.207 40.691 100.807 38.9279C100.406 37.1647 100.146 35.3414 100.025 33.4581C99.9051 31.5747 99.845 29.6913 99.845 27.808C99.845 26.3253 99.865 24.7425 99.9051 23.0595C99.9452 21.3765 100.005 19.4931 100.085 17.4094C100.166 15.3256 100.246 13.0015 100.326 10.4369C100.446 7.8723 100.566 4.9671 100.686 1.72129H111.265C111.145 5.32774 111.045 8.39323 110.965 10.9177C110.885 13.4022 110.805 15.4859 110.724 17.1689C110.684 18.8519 110.644 20.1943 110.604 21.1961C110.604 22.1579 110.584 22.8992 110.544 23.4201C110.544 23.941 110.544 24.3217 110.544 24.5622C110.544 24.7625 110.544 24.9228 110.544 25.043C110.544 28.93 110.985 31.8552 111.866 33.8187C112.748 35.7822 114.331 36.764 116.615 36.764C118.939 36.764 120.502 35.7021 121.303 33.5783C122.145 31.4545 122.566 28.2287 122.566 23.901C122.566 23.7006 122.566 23.4802 122.566 23.2398C122.566 22.9593 122.546 22.5385 122.506 21.9775C122.506 21.4165 122.485 20.6752 122.445 19.7536C122.445 18.7918 122.405 17.5296 122.325 15.9668C122.285 14.3639 122.225 12.4204 122.145 10.1363C122.065 7.81219 121.965 5.00717 121.844 1.72129L132.664 1.66118Z"/>
<path d="M166.245 20.7754L158.491 48.7855H152.901L145.628 21.5568C145.668 26.4455 145.748 31.3743 145.868 36.3432C146.028 41.3121 146.149 46.1608 146.229 50.8893H136.732C136.812 46.7619 136.872 42.6746 136.912 38.6273C136.952 34.54 136.972 30.4327 136.972 26.3053C136.972 22.1779 136.952 18.0906 136.912 14.0433C136.872 9.95602 136.812 5.84868 136.732 1.72129H149.595L155.966 29.9117L163.119 1.72129H175.261C175.14 9.89592 175.08 18.0906 175.08 26.3053C175.08 34.52 175.14 42.7146 175.261 50.8893H165.643L166.245 20.7754Z"/>
</mask>
<path d="M1.36065 13.9231C1.36065 11.3585 1.84151 9.25477 2.80323 7.61183C3.80502 5.92882 5.04724 4.60645 6.52989 3.64473C8.05262 2.64294 9.71559 1.96172 11.5188 1.60107C13.3621 1.20036 15.1253 1 16.8083 1C17.2891 1 17.8902 1.02004 18.6115 1.06011C19.3729 1.10018 20.1543 1.16029 20.9557 1.24043C21.7972 1.32057 22.6387 1.44079 23.4802 1.60107C24.3618 1.72129 25.1833 1.90161 25.9446 2.14204C26.0248 3.18391 26.0849 4.16566 26.125 5.08731C26.165 5.96889 26.1851 6.99072 26.1851 8.1528C26.1851 9.31488 26.165 10.4369 26.125 11.5188C26.0849 12.5607 26.0248 13.5625 25.9446 14.5242C25.6241 14.4841 25.2033 14.424 24.6824 14.3439C24.2015 14.2637 23.6806 14.2036 23.1196 14.1636C22.5986 14.1235 22.0577 14.0834 21.4967 14.0433C20.9757 14.0033 20.4748 13.9832 19.994 13.9832C18.0705 13.9832 16.668 14.2838 15.7865 14.8848C14.9049 15.4859 14.4641 16.3074 14.4641 17.3493C14.4641 17.9503 14.6043 18.5314 14.8848 19.0924C15.1653 19.6133 15.526 20.1142 15.9668 20.5951C16.4476 21.0759 16.9686 21.5367 17.5296 21.9775C18.1307 22.4183 18.7317 22.8391 19.3328 23.2398C20.2945 23.921 21.2562 24.6824 22.218 25.5239C23.2198 26.3253 24.1214 27.3071 24.9228 28.4691C25.7242 29.5912 26.3854 30.9135 26.9064 32.4362C27.4273 33.9189 27.6877 35.642 27.6877 37.6055C27.6877 40.1701 27.247 42.334 26.3654 44.0971C25.4838 45.8603 24.3418 47.3028 22.9393 48.4249C21.5768 49.5068 20.0341 50.3082 18.311 50.8292C16.628 51.31 14.9449 51.5504 13.2619 51.5504C12.5006 51.5504 11.5589 51.4903 10.4369 51.3701C9.35495 51.29 8.25298 51.1497 7.13097 50.9494C6.00896 50.7891 4.94706 50.5887 3.94527 50.3483C2.94348 50.0678 2.14204 49.7472 1.54097 49.3866C1.38068 48.6653 1.24043 47.924 1.12022 47.1626C1.04007 46.4012 1 45.5597 1 44.6381C1 43.9969 1.02004 43.2155 1.06011 42.2939C1.14025 41.3722 1.22039 40.4305 1.30054 39.4688C1.38068 38.5071 1.46082 37.5855 1.54097 36.7039C1.66118 35.8223 1.76136 35.081 1.84151 34.4799C2.28229 34.7203 2.92344 35.0008 3.76495 35.3214C4.60645 35.6019 5.50807 35.8824 6.46979 36.1629C7.47158 36.4434 8.47337 36.6838 9.47516 36.8842C10.477 37.0846 11.3585 37.1847 12.1199 37.1847C13.4022 37.1847 14.3639 36.9243 15.0051 36.4033C15.6462 35.8423 15.9668 35.101 15.9668 34.1794C15.9668 33.1776 15.6061 32.296 14.8848 31.5346C14.1636 30.7332 13.2619 29.9518 12.18 29.1904C11.0981 28.4291 9.91595 27.6276 8.63366 26.7861C7.39144 25.9046 6.22936 24.8827 5.14742 23.7207C4.06548 22.5586 3.16387 21.1961 2.44258 19.6333C1.72129 18.0305 1.36065 16.1271 1.36065 13.9231Z" fill="#C72F2A"/>
<path d="M41.1495 1.72129C41.0293 4.12559 40.9291 6.24939 40.849 8.09269C40.8089 9.93599 40.7688 11.6991 40.7287 13.3822C40.6887 15.0652 40.6486 16.8083 40.6085 18.6115C40.6085 20.3747 40.6085 22.3983 40.6085 24.6824H40.849L51.5481 1.66118H62.7281L50.947 25.6441L63.4494 50.8893H52.2093L40.849 27.0867H40.6085C40.6085 28.5693 40.6085 30.2523 40.6085 32.1357C40.6085 34.0191 40.6085 36.0026 40.6085 38.0864C40.6486 40.13 40.6686 42.2538 40.6686 44.4578C40.7087 46.6216 40.7287 48.7655 40.7287 50.8893H30.1498C30.1899 49.1261 30.23 47.3028 30.27 45.4195C30.3101 43.496 30.3502 41.4323 30.3902 39.2284C30.4303 36.9844 30.4503 34.5801 30.4503 32.0155C30.4503 29.4108 30.4503 26.5457 30.4503 23.4201C30.4503 20.6952 30.4503 18.3911 30.4503 16.5077C30.4503 14.5843 30.4303 12.8412 30.3902 11.2784C30.3902 9.71559 30.3902 8.21291 30.3902 6.77032C30.3902 5.28767 30.3902 3.60466 30.3902 1.72129H41.1495Z" fill="#C72F2A"/>
<path d="M64.2693 50.8893C64.3895 47.0825 64.4696 43.2957 64.5097 39.5289C64.5498 35.7221 64.5698 32.1157 64.5698 28.7096C64.5698 23.8609 64.5298 19.2527 64.4496 14.8848C64.4095 10.517 64.3494 6.12918 64.2693 1.72129C66.2328 1.52093 68.1963 1.36065 70.1598 1.24043C72.1634 1.08014 74.187 1 76.2307 1C79.1559 1 81.9008 1.22039 84.4654 1.66118C87.03 2.0619 89.254 2.8433 91.1374 4.00538C93.0207 5.12739 94.5034 6.69018 95.5853 8.69377C96.7073 10.6974 97.2683 13.282 97.2683 16.4476C97.2683 20.3747 96.4469 23.4602 94.8039 25.7042C93.2011 27.9482 91.0171 29.6312 88.2522 30.7532L98.0497 50.8893H87.3506L79.3563 32.5565C77.7133 32.6767 76.0103 32.7368 74.2471 32.7368C74.2471 35.8223 74.2672 38.8477 74.3072 41.813C74.3473 44.7783 74.4675 47.8037 74.6679 50.8893H64.2693ZM74.2471 23.6004C75.4894 23.7207 76.6314 23.7808 77.6733 23.7808C80.3981 23.7808 82.3216 23.2799 83.4436 22.2781C84.6057 21.2362 85.1867 19.6934 85.1867 17.6498C85.1867 16.4076 85.0064 15.4058 84.6457 14.6444C84.3252 13.883 83.8644 13.282 83.2633 12.8412C82.7023 12.4004 82.0211 12.0999 81.2196 11.9396C80.4583 11.7793 79.6368 11.6991 78.7552 11.6991C78.1141 11.6991 77.3928 11.7392 76.5913 11.8194C75.83 11.8594 75.0486 11.9396 74.2471 12.0598V23.6004Z" fill="#C72F2A"/>
<path d="M132.664 1.66118C132.744 7.51165 132.864 12.5807 133.024 16.8684C133.185 21.116 133.265 24.7425 133.265 27.7479C133.265 29.7114 133.205 31.6749 133.084 33.6384C132.964 35.5618 132.704 37.4051 132.303 39.1683C131.902 40.9314 131.321 42.5744 130.56 44.0971C129.839 45.5798 128.857 46.8821 127.615 48.0041C126.413 49.1261 124.91 50.0077 123.107 50.6488C121.303 51.2499 119.16 51.5504 116.675 51.5504C114.11 51.5504 111.907 51.2299 110.063 50.5887C108.26 49.9075 106.737 49.0059 105.495 47.8839C104.253 46.7619 103.251 45.4395 102.49 43.9168C101.768 42.354 101.207 40.691 100.807 38.9279C100.406 37.1647 100.146 35.3414 100.025 33.4581C99.9051 31.5747 99.845 29.6913 99.845 27.808C99.845 26.3253 99.865 24.7425 99.9051 23.0595C99.9452 21.3765 100.005 19.4931 100.085 17.4094C100.166 15.3256 100.246 13.0015 100.326 10.4369C100.446 7.8723 100.566 4.9671 100.686 1.72129H111.265C111.145 5.32774 111.045 8.39323 110.965 10.9177C110.885 13.4022 110.805 15.4859 110.724 17.1689C110.684 18.8519 110.644 20.1943 110.604 21.1961C110.604 22.1579 110.584 22.8992 110.544 23.4201C110.544 23.941 110.544 24.3217 110.544 24.5622C110.544 24.7625 110.544 24.9228 110.544 25.043C110.544 28.93 110.985 31.8552 111.866 33.8187C112.748 35.7822 114.331 36.764 116.615 36.764C118.939 36.764 120.502 35.7021 121.303 33.5783C122.145 31.4545 122.566 28.2287 122.566 23.901C122.566 23.7006 122.566 23.4802 122.566 23.2398C122.566 22.9593 122.546 22.5385 122.506 21.9775C122.506 21.4165 122.485 20.6752 122.445 19.7536C122.445 18.7918 122.405 17.5296 122.325 15.9668C122.285 14.3639 122.225 12.4204 122.145 10.1363C122.065 7.81219 121.965 5.00717 121.844 1.72129L132.664 1.66118Z" fill="#C72F2A"/>
<path d="M166.245 20.7754L158.491 48.7855H152.901L145.628 21.5568C145.668 26.4455 145.748 31.3743 145.868 36.3432C146.028 41.3121 146.149 46.1608 146.229 50.8893H136.732C136.812 46.7619 136.872 42.6746 136.912 38.6273C136.952 34.54 136.972 30.4327 136.972 26.3053C136.972 22.1779 136.952 18.0906 136.912 14.0433C136.872 9.95602 136.812 5.84868 136.732 1.72129H149.595L155.966 29.9117L163.119 1.72129H175.261C175.14 9.89592 175.08 18.0906 175.08 26.3053C175.08 34.52 175.14 42.7146 175.261 50.8893H165.643L166.245 20.7754Z" fill="#C72F2A"/>
<path d="M1.36065 13.9231C1.36065 11.3585 1.84151 9.25477 2.80323 7.61183C3.80502 5.92882 5.04724 4.60645 6.52989 3.64473C8.05262 2.64294 9.71559 1.96172 11.5188 1.60107C13.3621 1.20036 15.1253 1 16.8083 1C17.2891 1 17.8902 1.02004 18.6115 1.06011C19.3729 1.10018 20.1543 1.16029 20.9557 1.24043C21.7972 1.32057 22.6387 1.44079 23.4802 1.60107C24.3618 1.72129 25.1833 1.90161 25.9446 2.14204C26.0248 3.18391 26.0849 4.16566 26.125 5.08731C26.165 5.96889 26.1851 6.99072 26.1851 8.1528C26.1851 9.31488 26.165 10.4369 26.125 11.5188C26.0849 12.5607 26.0248 13.5625 25.9446 14.5242C25.6241 14.4841 25.2033 14.424 24.6824 14.3439C24.2015 14.2637 23.6806 14.2036 23.1196 14.1636C22.5986 14.1235 22.0577 14.0834 21.4967 14.0433C20.9757 14.0033 20.4748 13.9832 19.994 13.9832C18.0705 13.9832 16.668 14.2838 15.7865 14.8848C14.9049 15.4859 14.4641 16.3074 14.4641 17.3493C14.4641 17.9503 14.6043 18.5314 14.8848 19.0924C15.1653 19.6133 15.526 20.1142 15.9668 20.5951C16.4476 21.0759 16.9686 21.5367 17.5296 21.9775C18.1307 22.4183 18.7317 22.8391 19.3328 23.2398C20.2945 23.921 21.2562 24.6824 22.218 25.5239C23.2198 26.3253 24.1214 27.3071 24.9228 28.4691C25.7242 29.5912 26.3854 30.9135 26.9064 32.4362C27.4273 33.9189 27.6877 35.642 27.6877 37.6055C27.6877 40.1701 27.247 42.334 26.3654 44.0971C25.4838 45.8603 24.3418 47.3028 22.9393 48.4249C21.5768 49.5068 20.0341 50.3082 18.311 50.8292C16.628 51.31 14.9449 51.5504 13.2619 51.5504C12.5006 51.5504 11.5589 51.4903 10.4369 51.3701C9.35495 51.29 8.25298 51.1497 7.13097 50.9494C6.00896 50.7891 4.94706 50.5887 3.94527 50.3483C2.94348 50.0678 2.14204 49.7472 1.54097 49.3866C1.38068 48.6653 1.24043 47.924 1.12022 47.1626C1.04007 46.4012 1 45.5597 1 44.6381C1 43.9969 1.02004 43.2155 1.06011 42.2939C1.14025 41.3722 1.22039 40.4305 1.30054 39.4688C1.38068 38.5071 1.46082 37.5855 1.54097 36.7039C1.66118 35.8223 1.76136 35.081 1.84151 34.4799C2.28229 34.7203 2.92344 35.0008 3.76495 35.3214C4.60645 35.6019 5.50807 35.8824 6.46979 36.1629C7.47158 36.4434 8.47337 36.6838 9.47516 36.8842C10.477 37.0846 11.3585 37.1847 12.1199 37.1847C13.4022 37.1847 14.3639 36.9243 15.0051 36.4033C15.6462 35.8423 15.9668 35.101 15.9668 34.1794C15.9668 33.1776 15.6061 32.296 14.8848 31.5346C14.1636 30.7332 13.2619 29.9518 12.18 29.1904C11.0981 28.4291 9.91595 27.6276 8.63366 26.7861C7.39144 25.9046 6.22936 24.8827 5.14742 23.7207C4.06548 22.5586 3.16387 21.1961 2.44258 19.6333C1.72129 18.0305 1.36065 16.1271 1.36065 13.9231Z" stroke="black" stroke-width="2" mask="url(#path-1-outside-1)"/>
<path d="M41.1495 1.72129C41.0293 4.12559 40.9291 6.24939 40.849 8.09269C40.8089 9.93599 40.7688 11.6991 40.7287 13.3822C40.6887 15.0652 40.6486 16.8083 40.6085 18.6115C40.6085 20.3747 40.6085 22.3983 40.6085 24.6824H40.849L51.5481 1.66118H62.7281L50.947 25.6441L63.4494 50.8893H52.2093L40.849 27.0867H40.6085C40.6085 28.5693 40.6085 30.2523 40.6085 32.1357C40.6085 34.0191 40.6085 36.0026 40.6085 38.0864C40.6486 40.13 40.6686 42.2538 40.6686 44.4578C40.7087 46.6216 40.7287 48.7655 40.7287 50.8893H30.1498C30.1899 49.1261 30.23 47.3028 30.27 45.4195C30.3101 43.496 30.3502 41.4323 30.3902 39.2284C30.4303 36.9844 30.4503 34.5801 30.4503 32.0155C30.4503 29.4108 30.4503 26.5457 30.4503 23.4201C30.4503 20.6952 30.4503 18.3911 30.4503 16.5077C30.4503 14.5843 30.4303 12.8412 30.3902 11.2784C30.3902 9.71559 30.3902 8.21291 30.3902 6.77032C30.3902 5.28767 30.3902 3.60466 30.3902 1.72129H41.1495Z" stroke="black" stroke-width="2" mask="url(#path-1-outside-1)"/>
<path d="M64.2693 50.8893C64.3895 47.0825 64.4696 43.2957 64.5097 39.5289C64.5498 35.7221 64.5698 32.1157 64.5698 28.7096C64.5698 23.8609 64.5298 19.2527 64.4496 14.8848C64.4095 10.517 64.3494 6.12918 64.2693 1.72129C66.2328 1.52093 68.1963 1.36065 70.1598 1.24043C72.1634 1.08014 74.187 1 76.2307 1C79.1559 1 81.9008 1.22039 84.4654 1.66118C87.03 2.0619 89.254 2.8433 91.1374 4.00538C93.0207 5.12739 94.5034 6.69018 95.5853 8.69377C96.7073 10.6974 97.2683 13.282 97.2683 16.4476C97.2683 20.3747 96.4469 23.4602 94.8039 25.7042C93.2011 27.9482 91.0171 29.6312 88.2522 30.7532L98.0497 50.8893H87.3506L79.3563 32.5565C77.7133 32.6767 76.0103 32.7368 74.2471 32.7368C74.2471 35.8223 74.2672 38.8477 74.3072 41.813C74.3473 44.7783 74.4675 47.8037 74.6679 50.8893H64.2693ZM74.2471 23.6004C75.4894 23.7207 76.6314 23.7808 77.6733 23.7808C80.3981 23.7808 82.3216 23.2799 83.4436 22.2781C84.6057 21.2362 85.1867 19.6934 85.1867 17.6498C85.1867 16.4076 85.0064 15.4058 84.6457 14.6444C84.3252 13.883 83.8644 13.282 83.2633 12.8412C82.7023 12.4004 82.0211 12.0999 81.2196 11.9396C80.4583 11.7793 79.6368 11.6991 78.7552 11.6991C78.1141 11.6991 77.3928 11.7392 76.5913 11.8194C75.83 11.8594 75.0486 11.9396 74.2471 12.0598V23.6004Z" stroke="black" stroke-width="2" mask="url(#path-1-outside-1)"/>
<path d="M132.664 1.66118C132.744 7.51165 132.864 12.5807 133.024 16.8684C133.185 21.116 133.265 24.7425 133.265 27.7479C133.265 29.7114 133.205 31.6749 133.084 33.6384C132.964 35.5618 132.704 37.4051 132.303 39.1683C131.902 40.9314 131.321 42.5744 130.56 44.0971C129.839 45.5798 128.857 46.8821 127.615 48.0041C126.413 49.1261 124.91 50.0077 123.107 50.6488C121.303 51.2499 119.16 51.5504 116.675 51.5504C114.11 51.5504 111.907 51.2299 110.063 50.5887C108.26 49.9075 106.737 49.0059 105.495 47.8839C104.253 46.7619 103.251 45.4395 102.49 43.9168C101.768 42.354 101.207 40.691 100.807 38.9279C100.406 37.1647 100.146 35.3414 100.025 33.4581C99.9051 31.5747 99.845 29.6913 99.845 27.808C99.845 26.3253 99.865 24.7425 99.9051 23.0595C99.9452 21.3765 100.005 19.4931 100.085 17.4094C100.166 15.3256 100.246 13.0015 100.326 10.4369C100.446 7.8723 100.566 4.9671 100.686 1.72129H111.265C111.145 5.32774 111.045 8.39323 110.965 10.9177C110.885 13.4022 110.805 15.4859 110.724 17.1689C110.684 18.8519 110.644 20.1943 110.604 21.1961C110.604 22.1579 110.584 22.8992 110.544 23.4201C110.544 23.941 110.544 24.3217 110.544 24.5622C110.544 24.7625 110.544 24.9228 110.544 25.043C110.544 28.93 110.985 31.8552 111.866 33.8187C112.748 35.7822 114.331 36.764 116.615 36.764C118.939 36.764 120.502 35.7021 121.303 33.5783C122.145 31.4545 122.566 28.2287 122.566 23.901C122.566 23.7006 122.566 23.4802 122.566 23.2398C122.566 22.9593 122.546 22.5385 122.506 21.9775C122.506 21.4165 122.485 20.6752 122.445 19.7536C122.445 18.7918 122.405 17.5296 122.325 15.9668C122.285 14.3639 122.225 12.4204 122.145 10.1363C122.065 7.81219 121.965 5.00717 121.844 1.72129L132.664 1.66118Z" stroke="black" stroke-width="2" mask="url(#path-1-outside-1)"/>
<path d="M166.245 20.7754L158.491 48.7855H152.901L145.628 21.5568C145.668 26.4455 145.748 31.3743 145.868 36.3432C146.028 41.3121 146.149 46.1608 146.229 50.8893H136.732C136.812 46.7619 136.872 42.6746 136.912 38.6273C136.952 34.54 136.972 30.4327 136.972 26.3053C136.972 22.1779 136.952 18.0906 136.912 14.0433C136.872 9.95602 136.812 5.84868 136.732 1.72129H149.595L155.966 29.9117L163.119 1.72129H175.261C175.14 9.89592 175.08 18.0906 175.08 26.3053C175.08 34.52 175.14 42.7146 175.261 50.8893H165.643L166.245 20.7754Z" stroke="black" stroke-width="2" mask="url(#path-1-outside-1)"/>
<path d="M140.816 73.9058L140.586 74.3829L141.076 74.5848L151.911 79.054L152.348 79.2341L152.552 78.8085L171.048 40.3483L171.277 39.8712L170.788 39.6693L159.952 35.2001L159.516 35.02L159.311 35.4456L140.816 73.9058ZM207.396 66.8863L207.833 67.0664L208.038 66.6408L212.466 57.432L212.695 56.9549L212.206 56.7531L178.644 42.9098L178.207 42.7297L178.003 43.1553L173.574 52.3641L173.345 52.8411L173.834 53.043L184.736 57.5396L177.932 71.6883L170.898 86.314L170.669 86.7911L171.158 86.9929L181.994 91.4622L182.43 91.6423L182.635 91.2167L196.497 62.3908L207.396 66.8863Z" fill="#42C755" stroke="black"/>
</svg>
