<svg width="22" height="24" viewBox="0 0 22 24" fill="none" xmlns="http://www.w3.org/2000/svg">
<path d="M16.8438 2.53594C19.5508 4.64531 21.3125 8.09531 21.3125 12C21.3125 18.4125 16.5516 23.6109 10.6777 23.625C4.81251 23.6391 0.00860159 18.4219 7.8425e-06 12.0187C-0.00428903 8.11406 1.75743 4.65469 4.46016 2.54063C4.9629 2.15156 5.66329 2.31563 5.96407 2.90156L6.64298 4.21875C6.89649 4.71094 6.77618 5.33438 6.35938 5.67188C4.57618 7.11562 3.43751 9.40312 3.43751 11.9953C3.43321 16.3219 6.63868 19.875 10.6563 19.875C14.5922 19.875 17.9008 16.3969 17.875 11.9484C17.8621 9.52031 16.8137 7.17656 14.9488 5.66719C14.532 5.32969 14.416 4.70625 14.6695 4.21875L15.3484 2.90156C15.6492 2.32031 16.3453 2.14687 16.8438 2.53594ZM12.375 12.375V1.125C12.375 0.501562 11.9152 0 11.3438 0H9.96876C9.39727 0 8.93751 0.501562 8.93751 1.125V12.375C8.93751 12.9984 9.39727 13.5 9.96876 13.5H11.3438C11.9152 13.5 12.375 12.9984 12.375 12.375Z" fill="#D6B149"/>
</svg>
